# Blender v2.74 (sub 0) OBJ File: 'mousetrap3.blend'
# www.blender.org
mtllib mousetrap3.mtl
o Cylinder_Cylinder.002
v 0.365274 -0.000000 -0.283505
v 0.223274 -0.000000 -1.059399
v 0.358256 -0.071261 -0.283505
v 0.218984 -0.043559 -1.059399
v 0.337469 -0.139784 -0.283505
v 0.206278 -0.085443 -1.059399
v 0.303714 -0.202935 -0.283505
v 0.185645 -0.124044 -1.059399
v 0.258288 -0.258288 -0.283505
v 0.157878 -0.157878 -1.059399
v 0.202935 -0.303714 -0.283505
v 0.124044 -0.185645 -1.059399
v 0.139784 -0.337469 -0.283505
v 0.085443 -0.206278 -1.059399
v 0.071262 -0.358255 -0.283505
v 0.043559 -0.218984 -1.059399
v 0.000000 -0.365274 -0.283505
v 0.000000 -0.223274 -1.059399
v -0.071261 -0.358255 -0.283505
v -0.043558 -0.218984 -1.059399
v -0.139784 -0.337469 -0.283505
v -0.085443 -0.206278 -1.059399
v -0.202935 -0.303714 -0.283505
v -0.124044 -0.185645 -1.059399
v -0.258287 -0.258288 -0.283505
v -0.157878 -0.157878 -1.059399
v -0.303714 -0.202935 -0.283505
v -0.185645 -0.124044 -1.059399
v -0.337469 -0.139784 -0.283505
v -0.206278 -0.085443 -1.059399
v -0.358255 -0.071261 -0.283505
v -0.218983 -0.043559 -1.059399
v -0.365274 0.000000 -0.283505
v -0.223273 -0.000000 -1.059399
v -0.358255 0.071261 -0.283505
v -0.218983 0.043559 -1.059399
v -0.337469 0.139784 -0.283505
v -0.206278 0.085443 -1.059399
v -0.303714 0.202935 -0.283505
v -0.185645 0.124044 -1.059399
v -0.258287 0.258288 -0.283505
v -0.157878 0.157878 -1.059399
v -0.202935 0.303714 -0.283505
v -0.124044 0.185645 -1.059399
v -0.139784 0.337469 -0.283505
v -0.085443 0.206278 -1.059399
v -0.071261 0.358255 -0.283505
v -0.043558 0.218983 -1.059399
v 0.000001 0.365274 -0.283505
v 0.000000 0.223274 -1.059399
v 0.071262 0.358255 -0.283505
v 0.043559 0.218983 -1.059399
v 0.139785 0.337469 -0.283505
v 0.085444 0.206278 -1.059399
v 0.202936 0.303714 -0.283505
v 0.124045 0.185645 -1.059399
v 0.258288 0.258287 -0.283505
v 0.157879 0.157878 -1.059399
v 0.303715 0.202935 -0.283505
v 0.185646 0.124044 -1.059399
v 0.337469 0.139784 -0.283505
v 0.206278 0.085443 -1.059399
v 0.358256 0.071261 -0.283505
v 0.218984 0.043558 -1.059399
v 0.346112 -0.000000 0.336500
v 0.339462 -0.067523 0.336500
v 0.319766 -0.132451 0.336500
v 0.287782 -0.192290 0.336500
v 0.244738 -0.244738 0.336500
v 0.192290 -0.287782 0.336500
v 0.132451 -0.319766 0.336500
v 0.067523 -0.339462 0.336500
v 0.000000 -0.346112 0.336500
v -0.067523 -0.339462 0.336500
v -0.132451 -0.319766 0.336500
v -0.192289 -0.287782 0.336500
v -0.244738 -0.244738 0.336500
v -0.287781 -0.192290 0.336500
v -0.319766 -0.132451 0.336500
v -0.339461 -0.067523 0.336500
v -0.346112 0.000000 0.336500
v -0.339461 0.067523 0.336500
v -0.319765 0.132451 0.336500
v -0.287781 0.192290 0.336500
v -0.244738 0.244738 0.336500
v -0.192289 0.287782 0.336500
v -0.132451 0.319766 0.336500
v -0.067523 0.339461 0.336500
v 0.000001 0.346112 0.336500
v 0.067524 0.339461 0.336500
v 0.132452 0.319765 0.336500
v 0.192290 0.287781 0.336500
v 0.244739 0.244738 0.336500
v 0.287782 0.192289 0.336500
v 0.319766 0.132451 0.336500
v 0.339462 0.067522 0.336500
v 0.530697 -0.000000 0.440948
v 0.520500 -0.103534 0.440948
v 0.490300 -0.203089 0.440948
v 0.441258 -0.294839 0.440948
v 0.375259 -0.375259 0.440948
v 0.294839 -0.441258 0.440948
v 0.203089 -0.490300 0.440948
v 0.103534 -0.520500 0.440948
v 0.000000 -0.530697 0.440948
v -0.103534 -0.520500 0.440948
v -0.203089 -0.490300 0.440948
v -0.294839 -0.441258 0.440948
v -0.375259 -0.375259 0.440948
v -0.441258 -0.294839 0.440948
v -0.490300 -0.203089 0.440948
v -0.520499 -0.103534 0.440948
v -0.530697 0.000000 0.440948
v -0.520499 0.103534 0.440948
v -0.490300 0.203089 0.440948
v -0.441258 0.294840 0.440948
v -0.375259 0.375259 0.440948
v -0.294839 0.441258 0.440948
v -0.203088 0.490300 0.440948
v -0.103533 0.520500 0.440948
v 0.000001 0.530697 0.440948
v 0.103534 0.520499 0.440948
v 0.203090 0.490300 0.440948
v 0.294840 0.441258 0.440948
v 0.375260 0.375259 0.440948
v 0.441259 0.294839 0.440948
v 0.490300 0.203088 0.440948
v 0.520500 0.103533 0.440948
v 0.779840 -0.000000 -0.409283
v 0.764856 -0.152139 -0.409283
v 0.720479 -0.298432 -0.409283
v 0.648414 -0.433256 -0.409283
v 0.551430 -0.551430 -0.409283
v 0.433256 -0.648414 -0.409283
v 0.298432 -0.720479 -0.409283
v 0.152139 -0.764856 -0.409283
v 0.000000 -0.779840 -0.409283
v -0.152139 -0.764856 -0.409283
v -0.298432 -0.720479 -0.409283
v -0.433256 -0.648414 -0.409283
v -0.551430 -0.551430 -0.409283
v -0.648414 -0.433256 -0.409283
v -0.720479 -0.298432 -0.409283
v -0.764856 -0.152139 -0.409283
v -0.779840 0.000000 -0.409283
v -0.764856 0.152140 -0.409283
v -0.720478 0.298432 -0.409283
v -0.648413 0.433256 -0.409283
v -0.551430 0.551431 -0.409283
v -0.433256 0.648414 -0.409283
v -0.298431 0.720479 -0.409283
v -0.152139 0.764856 -0.409283
v 0.000001 0.779840 -0.409283
v 0.152140 0.764856 -0.409283
v 0.298433 0.720478 -0.409283
v 0.433257 0.648413 -0.409283
v 0.551431 0.551430 -0.409283
v 0.648414 0.433255 -0.409283
v 0.720479 0.298431 -0.409283
v 0.764856 0.152138 -0.409283
v 0.694857 -0.000000 -0.809358
v 0.681505 -0.135560 -0.809358
v 0.641964 -0.265910 -0.809358
v 0.577752 -0.386042 -0.809358
v 0.491338 -0.491338 -0.809358
v 0.386042 -0.577752 -0.809358
v 0.265910 -0.641964 -0.809358
v 0.135560 -0.681505 -0.809358
v 0.000000 -0.694857 -0.809358
v -0.135560 -0.681505 -0.809358
v -0.265910 -0.641964 -0.809358
v -0.386041 -0.577752 -0.809358
v -0.491338 -0.491338 -0.809358
v -0.577752 -0.386042 -0.809358
v -0.641964 -0.265910 -0.809358
v -0.681505 -0.135560 -0.809358
v -0.694856 0.000000 -0.809358
v -0.681505 0.135560 -0.809358
v -0.641963 0.265910 -0.809358
v -0.577752 0.386042 -0.809358
v -0.491337 0.491338 -0.809358
v -0.386041 0.577752 -0.809358
v -0.265909 0.641964 -0.809358
v -0.135559 0.681505 -0.809358
v 0.000001 0.694856 -0.809358
v 0.135561 0.681505 -0.809358
v 0.265911 0.641963 -0.809358
v 0.386042 0.577752 -0.809358
v 0.491338 0.491337 -0.809358
v 0.577753 0.386041 -0.809358
v 0.641964 0.265909 -0.809358
v 0.681505 0.135559 -0.809358
v 0.780467 -0.155245 0.050461
v 0.735184 -0.304523 0.050461
v 0.661648 -0.442099 0.050461
v 0.562685 -0.562685 0.050461
v 0.442099 -0.661648 0.050461
v 0.304523 -0.735184 0.050461
v 0.155245 -0.780467 0.050461
v 0.000000 -0.795757 0.050461
v -0.155244 -0.780467 0.050461
v -0.304523 -0.735184 0.050461
v -0.442099 -0.661648 0.050461
v -0.562685 -0.562685 0.050461
v -0.661648 -0.442099 0.050461
v -0.735184 -0.304523 0.050461
v -0.780467 -0.155244 0.050461
v -0.795757 0.000000 0.050461
v -0.780467 0.155245 0.050461
v -0.735183 0.304523 0.050461
v -0.661647 0.442099 0.050461
v -0.562685 0.562685 0.050461
v -0.442098 0.661648 0.050461
v -0.304522 0.735184 0.050461
v -0.155244 0.780467 0.050461
v 0.000001 0.795757 0.050461
v 0.155245 0.780466 0.050461
v 0.304524 0.735183 0.050461
v 0.442100 0.661647 0.050461
v 0.562686 0.562684 0.050461
v 0.661648 0.442098 0.050461
v 0.735184 0.304522 0.050461
v 0.780467 0.155243 0.050461
v 0.795757 -0.000000 0.050461
v 0.410380 -0.081630 0.467358
v 0.386569 -0.160122 0.467358
v 0.347903 -0.232462 0.467358
v 0.295867 -0.295867 0.467358
v 0.232462 -0.347903 0.467358
v 0.160122 -0.386569 0.467358
v 0.081630 -0.410380 0.467358
v 0.000000 -0.418420 0.467358
v -0.081629 -0.410380 0.467358
v -0.160122 -0.386569 0.467358
v -0.232461 -0.347903 0.467358
v -0.295867 -0.295867 0.467358
v -0.347903 -0.232461 0.467358
v -0.386569 -0.160122 0.467358
v -0.410380 -0.081630 0.467358
v -0.418419 0.000000 0.467358
v -0.410380 0.081630 0.467358
v -0.386569 0.160122 0.467358
v -0.347903 0.232462 0.467358
v -0.295867 0.295867 0.467358
v -0.232461 0.347903 0.467358
v -0.160122 0.386569 0.467358
v -0.081629 0.410380 0.467358
v 0.000001 0.418419 0.467358
v 0.081630 0.410380 0.467358
v 0.160123 0.386569 0.467358
v 0.232462 0.347903 0.467358
v 0.295868 0.295867 0.467358
v 0.347904 0.232461 0.467358
v 0.386570 0.160122 0.467358
v 0.410380 0.081629 0.467358
v 0.418420 -0.000000 0.467358
vn -0.467900 0.046100 0.882600
vn -0.450000 0.136500 0.882600
vn -0.414700 0.221700 0.882600
vn -0.363500 0.298300 0.882600
vn -0.298300 0.363500 0.882600
vn -0.221700 0.414700 0.882600
vn -0.136500 0.450000 0.882600
vn -0.046100 0.467900 0.882600
vn 0.046100 0.467900 0.882600
vn 0.136500 0.450000 0.882600
vn 0.221700 0.414700 0.882600
vn 0.298300 0.363500 0.882600
vn 0.363500 0.298300 0.882600
vn 0.414700 0.221700 0.882600
vn 0.450000 0.136500 0.882600
vn 0.467900 0.046100 0.882600
vn 0.467900 -0.046100 0.882600
vn 0.450000 -0.136500 0.882600
vn 0.414700 -0.221700 0.882600
vn 0.363500 -0.298300 0.882600
vn 0.298300 -0.363500 0.882600
vn 0.221700 -0.414700 0.882600
vn 0.136500 -0.450000 0.882600
vn 0.046100 -0.467900 0.882600
vn -0.046100 -0.467900 0.882600
vn -0.136500 -0.450000 0.882600
vn -0.221700 -0.414700 0.882600
vn -0.298300 -0.363500 0.882600
vn -0.363500 -0.298300 0.882600
vn -0.414700 -0.221700 0.882600
vn -0.467900 -0.046100 0.882600
vn -0.450000 -0.136500 0.882600
vn -0.956400 -0.290100 0.034400
vn 0.956500 0.290100 0.030700
vn 0.994700 0.098000 0.030700
vn 0.881500 0.471200 0.030700
vn 0.772600 0.634100 0.030700
vn 0.634100 0.772600 0.030700
vn 0.471200 0.881500 0.030700
vn 0.290100 0.956500 0.030700
vn 0.098000 0.994700 0.030700
vn -0.098000 0.994700 0.030700
vn -0.290100 0.956500 0.030700
vn -0.471200 0.881500 0.030700
vn -0.634100 0.772600 0.030700
vn -0.772600 0.634100 0.030700
vn -0.881500 0.471200 0.030700
vn -0.956500 0.290100 0.030700
vn -0.994700 0.098000 0.030700
vn -0.994700 -0.098000 0.030700
vn -0.956500 -0.290100 0.030700
vn -0.881500 -0.471200 0.030700
vn -0.772600 -0.634100 0.030700
vn -0.634100 -0.772600 0.030700
vn -0.471200 -0.881500 0.030700
vn -0.290100 -0.956500 0.030700
vn -0.098000 -0.994700 0.030700
vn 0.098000 -0.994700 0.030700
vn 0.290100 -0.956500 0.030700
vn 0.471200 -0.881500 0.030700
vn 0.634100 -0.772600 0.030700
vn 0.772600 -0.634100 0.030700
vn 0.881500 -0.471200 0.030700
vn 0.956500 -0.290100 0.030700
vn 0.994700 -0.098000 0.030700
vn -0.220100 -0.066800 -0.973200
vn -0.228900 -0.022500 -0.973200
vn -0.202900 -0.108400 -0.973200
vn -0.177800 -0.145900 -0.973200
vn -0.145900 -0.177800 -0.973200
vn -0.108400 -0.202900 -0.973200
vn -0.066800 -0.220100 -0.973200
vn -0.022500 -0.228900 -0.973200
vn 0.022500 -0.228900 -0.973200
vn 0.066800 -0.220100 -0.973200
vn 0.108400 -0.202900 -0.973200
vn 0.145900 -0.177800 -0.973200
vn 0.177800 -0.145900 -0.973200
vn 0.202900 -0.108400 -0.973200
vn 0.220100 -0.066800 -0.973200
vn 0.228900 -0.022500 -0.973200
vn 0.228900 0.022500 -0.973200
vn 0.220100 0.066800 -0.973200
vn 0.202900 0.108400 -0.973200
vn 0.177800 0.145900 -0.973200
vn 0.145900 0.177800 -0.973200
vn 0.108400 0.202900 -0.973200
vn 0.066800 0.220100 -0.973200
vn 0.022500 0.228900 -0.973200
vn -0.022500 0.228900 -0.973200
vn -0.066800 0.220100 -0.973200
vn -0.108400 0.202900 -0.973200
vn -0.145900 0.177800 -0.973200
vn -0.177800 0.145900 -0.973200
vn -0.202900 0.108400 -0.973200
vn -0.220100 0.066800 -0.973200
vn -0.228900 0.022500 -0.973200
vn -0.994600 -0.098000 0.034400
vn -0.881400 -0.471100 0.034400
vn -0.772600 -0.634000 0.034400
vn -0.634000 -0.772600 0.034400
vn -0.471100 -0.881400 0.034400
vn -0.290100 -0.956400 0.034400
vn -0.098000 -0.994600 0.034400
vn 0.098000 -0.994600 0.034400
vn 0.290100 -0.956400 0.034400
vn 0.471100 -0.881400 0.034400
vn 0.634000 -0.772600 0.034400
vn 0.772600 -0.634000 0.034400
vn 0.881400 -0.471100 0.034400
vn 0.956400 -0.290100 0.034400
vn 0.994600 -0.098000 0.034400
vn 0.994600 0.098000 0.034400
vn 0.956400 0.290100 0.034400
vn 0.881400 0.471100 0.034400
vn 0.772600 0.634000 0.034400
vn 0.634000 0.772600 0.034400
vn 0.471100 0.881400 0.034400
vn 0.290100 0.956400 0.034400
vn 0.098000 0.994600 0.034400
vn -0.098000 0.994600 0.034400
vn -0.290100 0.956400 0.034400
vn -0.471100 0.881400 0.034400
vn -0.634000 0.772600 0.034400
vn -0.772600 0.634000 0.034400
vn -0.881400 0.471100 0.034400
vn -0.956400 0.290100 0.034400
vn -0.994600 0.098000 0.034400
vn -0.936200 -0.284000 0.206800
vn -0.973700 -0.095900 0.206800
vn -0.862900 -0.461200 0.206800
vn -0.756300 -0.620700 0.206800
vn -0.620700 -0.756300 0.206800
vn -0.461200 -0.862900 0.206800
vn -0.284000 -0.936200 0.206800
vn -0.095900 -0.973700 0.206800
vn 0.095900 -0.973700 0.206800
vn 0.284000 -0.936200 0.206800
vn 0.461200 -0.862900 0.206800
vn 0.620700 -0.756300 0.206800
vn 0.756300 -0.620700 0.206800
vn 0.862900 -0.461200 0.206800
vn 0.936200 -0.284000 0.206800
vn 0.973700 -0.095900 0.206800
vn 0.973700 0.095900 0.206800
vn 0.936200 0.284000 0.206800
vn 0.862900 0.461200 0.206800
vn 0.756300 0.620700 0.206800
vn 0.620700 0.756300 0.206800
vn 0.461200 0.862900 0.206800
vn 0.284000 0.936200 0.206800
vn 0.095900 0.973700 0.206800
vn -0.095900 0.973700 0.206800
vn -0.284000 0.936200 0.206800
vn -0.461200 0.862900 0.206800
vn -0.620700 0.756300 0.206800
vn -0.756300 0.620700 0.206800
vn -0.862900 0.461200 0.206800
vn -0.936200 0.284000 0.206800
vn -0.973700 0.095900 0.206800
vn -0.000000 0.000000 1.000000
vn -0.824700 0.081200 -0.559800
vn -0.793000 0.240500 -0.559800
vn -0.730800 0.390600 -0.559800
vn -0.640600 0.525700 -0.559800
vn -0.525700 0.640600 -0.559800
vn -0.390600 0.730800 -0.559800
vn -0.240500 0.793000 -0.559800
vn -0.081200 0.824700 -0.559800
vn 0.081200 0.824700 -0.559800
vn 0.240500 0.793000 -0.559800
vn 0.390600 0.730800 -0.559800
vn 0.525700 0.640600 -0.559800
vn 0.640600 0.525700 -0.559800
vn 0.730800 0.390600 -0.559800
vn 0.793000 0.240500 -0.559800
vn 0.824700 0.081200 -0.559800
vn 0.824700 -0.081200 -0.559800
vn 0.793000 -0.240500 -0.559800
vn 0.730800 -0.390600 -0.559800
vn 0.640600 -0.525700 -0.559800
vn 0.525700 -0.640600 -0.559800
vn 0.390600 -0.730800 -0.559800
vn 0.240500 -0.793000 -0.559800
vn 0.081200 -0.824700 -0.559800
vn -0.081200 -0.824700 -0.559800
vn -0.240500 -0.793000 -0.559800
vn -0.390600 -0.730800 -0.559800
vn -0.525700 -0.640600 -0.559800
vn -0.640600 -0.525700 -0.559800
vn -0.730800 -0.390600 -0.559800
vn -0.824700 -0.081200 -0.559800
vn -0.793000 -0.240500 -0.559800
vn 0.872000 -0.085900 -0.481900
vn 0.838500 -0.254400 -0.481900
vn 0.772800 -0.413100 -0.481900
vn 0.677400 -0.555900 -0.481900
vn 0.555900 -0.677400 -0.481900
vn 0.413100 -0.772800 -0.481900
vn 0.254400 -0.838500 -0.481900
vn 0.085900 -0.872000 -0.481900
vn -0.085900 -0.872000 -0.481900
vn -0.254400 -0.838500 -0.481900
vn -0.413100 -0.772800 -0.481900
vn -0.555900 -0.677400 -0.481900
vn -0.677400 -0.555900 -0.481900
vn -0.772800 -0.413100 -0.481900
vn -0.838500 -0.254400 -0.481900
vn -0.872000 -0.085900 -0.481900
vn -0.872000 0.085900 -0.481900
vn -0.838500 0.254400 -0.481900
vn -0.772800 0.413100 -0.481900
vn -0.677400 0.555900 -0.481900
vn -0.555900 0.677400 -0.481900
vn -0.413100 0.772800 -0.481900
vn -0.254400 0.838500 -0.481900
vn -0.085900 0.872000 -0.481900
vn 0.085900 0.872000 -0.481900
vn 0.254400 0.838500 -0.481900
vn 0.413100 0.772800 -0.481900
vn 0.555900 0.677400 -0.481900
vn 0.677400 0.555900 -0.481900
vn 0.772800 0.413100 -0.481900
vn 0.872000 0.085900 -0.481900
vn 0.838500 0.254400 -0.481900
usemtl None
s off
f 161//1 2//1 4//1 162//1
f 162//2 4//2 6//2 163//2
f 163//3 6//3 8//3 164//3
f 164//4 8//4 10//4 165//4
f 165//5 10//5 12//5 166//5
f 166//6 12//6 14//6 167//6
f 167//7 14//7 16//7 168//7
f 168//8 16//8 18//8 169//8
f 169//9 18//9 20//9 170//9
f 170//10 20//10 22//10 171//10
f 171//11 22//11 24//11 172//11
f 172//12 24//12 26//12 173//12
f 173//13 26//13 28//13 174//13
f 174//14 28//14 30//14 175//14
f 175//15 30//15 32//15 176//15
f 176//16 32//16 34//16 177//16
f 177//17 34//17 36//17 178//17
f 178//18 36//18 38//18 179//18
f 179//19 38//19 40//19 180//19
f 180//20 40//20 42//20 181//20
f 181//21 42//21 44//21 182//21
f 182//22 44//22 46//22 183//22
f 183//23 46//23 48//23 184//23
f 184//24 48//24 50//24 185//24
f 185//25 50//25 52//25 186//25
f 186//26 52//26 54//26 187//26
f 187//27 54//27 56//27 188//27
f 188//28 56//28 58//28 189//28
f 189//29 58//29 60//29 190//29
f 190//30 60//30 62//30 191//30
f 192//31 64//31 2//31 161//31
f 191//32 62//32 64//32 192//32
f 222//33 159//33 160//33 223//33
f 61//34 95//34 96//34 63//34
f 63//35 96//35 65//35 1//35
f 59//36 94//36 95//36 61//36
f 57//37 93//37 94//37 59//37
f 55//38 92//38 93//38 57//38
f 53//39 91//39 92//39 55//39
f 51//40 90//40 91//40 53//40
f 49//41 89//41 90//41 51//41
f 47//42 88//42 89//42 49//42
f 45//43 87//43 88//43 47//43
f 43//44 86//44 87//44 45//44
f 41//45 85//45 86//45 43//45
f 39//46 84//46 85//46 41//46
f 37//47 83//47 84//47 39//47
f 35//48 82//48 83//48 37//48
f 33//49 81//49 82//49 35//49
f 31//50 80//50 81//50 33//50
f 29//51 79//51 80//51 31//51
f 27//52 78//52 79//52 29//52
f 25//53 77//53 78//53 27//53
f 23//54 76//54 77//54 25//54
f 21//55 75//55 76//55 23//55
f 19//56 74//56 75//56 21//56
f 17//57 73//57 74//57 19//57
f 15//58 72//58 73//58 17//58
f 13//59 71//59 72//59 15//59
f 11//60 70//60 71//60 13//60
f 9//61 69//61 70//61 11//61
f 7//62 68//62 69//62 9//62
f 5//63 67//63 68//63 7//63
f 3//64 66//64 67//64 5//64
f 1//65 65//65 66//65 3//65
f 254//66 127//66 128//66 255//66
f 255//67 128//67 97//67 256//67
f 253//68 126//68 127//68 254//68
f 252//69 125//69 126//69 253//69
f 251//70 124//70 125//70 252//70
f 250//71 123//71 124//71 251//71
f 249//72 122//72 123//72 250//72
f 248//73 121//73 122//73 249//73
f 247//74 120//74 121//74 248//74
f 246//75 119//75 120//75 247//75
f 245//76 118//76 119//76 246//76
f 244//77 117//77 118//77 245//77
f 243//78 116//78 117//78 244//78
f 242//79 115//79 116//79 243//79
f 241//80 114//80 115//80 242//80
f 240//81 113//81 114//81 241//81
f 239//82 112//82 113//82 240//82
f 238//83 111//83 112//83 239//83
f 237//84 110//84 111//84 238//84
f 236//85 109//85 110//85 237//85
f 235//86 108//86 109//86 236//86
f 234//87 107//87 108//87 235//87
f 233//88 106//88 107//88 234//88
f 232//89 105//89 106//89 233//89
f 231//90 104//90 105//90 232//90
f 230//91 103//91 104//91 231//91
f 229//92 102//92 103//92 230//92
f 228//93 101//93 102//93 229//93
f 227//94 100//94 101//94 228//94
f 226//95 99//95 100//95 227//95
f 225//96 98//96 99//96 226//96
f 256//97 97//97 98//97 225//97
f 223//98 160//98 129//98 224//98
f 221//99 158//99 159//99 222//99
f 220//100 157//100 158//100 221//100
f 219//101 156//101 157//101 220//101
f 218//102 155//102 156//102 219//102
f 217//103 154//103 155//103 218//103
f 216//104 153//104 154//104 217//104
f 215//105 152//105 153//105 216//105
f 214//106 151//106 152//106 215//106
f 213//107 150//107 151//107 214//107
f 212//108 149//108 150//108 213//108
f 211//109 148//109 149//109 212//109
f 210//110 147//110 148//110 211//110
f 209//111 146//111 147//111 210//111
f 208//112 145//112 146//112 209//112
f 207//113 144//113 145//113 208//113
f 206//114 143//114 144//114 207//114
f 205//115 142//115 143//115 206//115
f 204//116 141//116 142//116 205//116
f 203//117 140//117 141//117 204//117
f 202//118 139//118 140//118 203//118
f 201//119 138//119 139//119 202//119
f 200//120 137//120 138//120 201//120
f 199//121 136//121 137//121 200//121
f 198//122 135//122 136//122 199//122
f 197//123 134//123 135//123 198//123
f 196//124 133//124 134//124 197//124
f 195//125 132//125 133//125 196//125
f 194//126 131//126 132//126 195//126
f 193//127 130//127 131//127 194//127
f 224//128 129//128 130//128 193//128
f 159//129 191//129 192//129 160//129
f 160//130 192//130 161//130 129//130
f 158//131 190//131 191//131 159//131
f 157//132 189//132 190//132 158//132
f 156//133 188//133 189//133 157//133
f 155//134 187//134 188//134 156//134
f 154//135 186//135 187//135 155//135
f 153//136 185//136 186//136 154//136
f 152//137 184//137 185//137 153//137
f 151//138 183//138 184//138 152//138
f 150//139 182//139 183//139 151//139
f 149//140 181//140 182//140 150//140
f 148//141 180//141 181//141 149//141
f 147//142 179//142 180//142 148//142
f 146//143 178//143 179//143 147//143
f 145//144 177//144 178//144 146//144
f 144//145 176//145 177//145 145//145
f 143//146 175//146 176//146 144//146
f 142//147 174//147 175//147 143//147
f 141//148 173//148 174//148 142//148
f 140//149 172//149 173//149 141//149
f 139//150 171//150 172//150 140//150
f 138//151 170//151 171//151 139//151
f 137//152 169//152 170//152 138//152
f 136//153 168//153 169//153 137//153
f 135//154 167//154 168//154 136//154
f 134//155 166//155 167//155 135//155
f 133//156 165//156 166//156 134//156
f 132//157 164//157 165//157 133//157
f 131//158 163//158 164//158 132//158
f 130//159 162//159 163//159 131//159
f 129//160 161//160 162//160 130//160
f 4//161 2//161 64//161 62//161 60//161 58//161 56//161 54//161 52//161 50//161 48//161 46//161 44//161 42//161 40//161 38//161 36//161 34//161 32//161 30//161 28//161 26//161 24//161 22//161 20//161 18//161 16//161 14//161 12//161 10//161 8//161 6//161
f 97//162 224//162 193//162 98//162
f 98//163 193//163 194//163 99//163
f 99//164 194//164 195//164 100//164
f 100//165 195//165 196//165 101//165
f 101//166 196//166 197//166 102//166
f 102//167 197//167 198//167 103//167
f 103//168 198//168 199//168 104//168
f 104//169 199//169 200//169 105//169
f 105//170 200//170 201//170 106//170
f 106//171 201//171 202//171 107//171
f 107//172 202//172 203//172 108//172
f 108//173 203//173 204//173 109//173
f 109//174 204//174 205//174 110//174
f 110//175 205//175 206//175 111//175
f 111//176 206//176 207//176 112//176
f 112//177 207//177 208//177 113//177
f 113//178 208//178 209//178 114//178
f 114//179 209//179 210//179 115//179
f 115//180 210//180 211//180 116//180
f 116//181 211//181 212//181 117//181
f 117//182 212//182 213//182 118//182
f 118//183 213//183 214//183 119//183
f 119//184 214//184 215//184 120//184
f 120//185 215//185 216//185 121//185
f 121//186 216//186 217//186 122//186
f 122//187 217//187 218//187 123//187
f 123//188 218//188 219//188 124//188
f 124//189 219//189 220//189 125//189
f 125//190 220//190 221//190 126//190
f 126//191 221//191 222//191 127//191
f 128//192 223//192 224//192 97//192
f 127//193 222//193 223//193 128//193
f 65//194 256//194 225//194 66//194
f 66//195 225//195 226//195 67//195
f 67//196 226//196 227//196 68//196
f 68//197 227//197 228//197 69//197
f 69//198 228//198 229//198 70//198
f 70//199 229//199 230//199 71//199
f 71//200 230//200 231//200 72//200
f 72//201 231//201 232//201 73//201
f 73//202 232//202 233//202 74//202
f 74//203 233//203 234//203 75//203
f 75//204 234//204 235//204 76//204
f 76//205 235//205 236//205 77//205
f 77//206 236//206 237//206 78//206
f 78//207 237//207 238//207 79//207
f 79//208 238//208 239//208 80//208
f 80//209 239//209 240//209 81//209
f 81//210 240//210 241//210 82//210
f 82//211 241//211 242//211 83//211
f 83//212 242//212 243//212 84//212
f 84//213 243//213 244//213 85//213
f 85//214 244//214 245//214 86//214
f 86//215 245//215 246//215 87//215
f 87//216 246//216 247//216 88//216
f 88//217 247//217 248//217 89//217
f 89//218 248//218 249//218 90//218
f 90//219 249//219 250//219 91//219
f 91//220 250//220 251//220 92//220
f 92//221 251//221 252//221 93//221
f 93//222 252//222 253//222 94//222
f 94//223 253//223 254//223 95//223
f 96//224 255//224 256//224 65//224
f 95//225 254//225 255//225 96//225
